<svg preserveAspectRatio="none" width="100%" height="100%" overflow="visible" style="display: block;" viewBox="0 0 36 42" fill="none" xmlns="http://www.w3.org/2000/svg">
<g id="Container">
<path id="Icon" d="M18 16C18.5667 16 19.0417 15.8083 19.425 15.425C19.8083 15.0417 20 14.5667 20 14C20 13.4333 19.8083 12.9583 19.425 12.575C19.0417 12.1917 18.5667 12 18 12C17.4333 12 16.9583 12.1917 16.575 12.575C16.1917 12.9583 16 13.4333 16 14C16 14.5667 16.1917 15.0417 16.575 15.425C16.9583 15.8083 17.4333 16 18 16V16M18 28C16.7 28 15.525 27.6417 14.475 26.925C13.425 26.2083 12.6667 25.2667 12.2 24.1C12.0333 24.1 11.8833 24.1083 11.75 24.125C11.6167 24.1417 11.4667 24.15 11.3 24.15C9.56667 24.15 8.08333 23.5333 6.85 22.3C5.61667 21.0667 5 19.5833 5 17.85C5 17.15 5.11667 16.475 5.35 15.825C5.58333 15.175 5.93333 14.5667 6.4 14C5.96667 13.4333 5.63333 12.825 5.4 12.175C5.16667 11.525 5.05 10.85 5.05 10.15C5.05 8.41667 5.65833 6.93333 6.875 5.7C8.09167 4.46667 9.56667 3.85 11.3 3.85C11.4667 3.85 11.6167 3.85833 11.75 3.875C11.8833 3.89167 12.0333 3.9 12.2 3.9C12.6667 2.73333 13.425 1.79167 14.475 1.075C15.525 0.358333 16.7 0 18 0C19.3 0 20.475 0.358333 21.525 1.075C22.575 1.79167 23.3333 2.73333 23.8 3.9C23.9667 3.9 24.1167 3.89167 24.25 3.875C24.3833 3.85833 24.5333 3.85 24.7 3.85C26.4333 3.85 27.9083 4.46667 29.125 5.7C30.3417 6.93333 30.95 8.41667 30.95 10.15C30.95 10.85 30.8417 11.525 30.625 12.175C30.4083 12.825 30.0667 13.4333 29.6 14C30.0333 14.5667 30.3667 15.175 30.6 15.825C30.8333 16.475 30.95 17.15 30.95 17.85C30.95 19.5833 30.3417 21.0667 29.125 22.3C27.9083 23.5333 26.4333 24.15 24.7 24.15C24.5333 24.15 24.3833 24.1417 24.25 24.125C24.1167 24.1083 23.9667 24.1 23.8 24.1C23.3333 25.2667 22.575 26.2083 21.525 26.925C20.475 27.6417 19.3 28 18 28V28M18 42C18 39.5333 18.475 37.2083 19.425 35.025C20.375 32.8417 21.6667 30.9333 23.3 29.3C24.9333 27.6667 26.8417 26.375 29.025 25.425C31.2083 24.475 33.5333 24 36 24C36 26.4667 35.525 28.7917 34.575 30.975C33.625 33.1583 32.3333 35.0667 30.7 36.7C29.0667 38.3333 27.1583 39.625 24.975 40.575C22.7917 41.525 20.4667 42 18 42V42M22.9 37.1C24.8 36.4 26.4667 35.3333 27.9 33.9C29.3333 32.4667 30.4 30.8 31.1 28.9C29.2 29.6 27.5333 30.6667 26.1 32.1C24.6667 33.5333 23.6 35.2 22.9 37.1V37.1M18 42C18 39.5333 17.525 37.2083 16.575 35.025C15.625 32.8417 14.3333 30.9333 12.7 29.3C11.0667 27.6667 9.15833 26.375 6.975 25.425C4.79167 24.475 2.46667 24 0 24C0 26.4667 0.475 28.7917 1.425 30.975C2.375 33.1583 3.66667 35.0667 5.3 36.7C6.93333 38.3333 8.84167 39.625 11.025 40.575C13.2083 41.525 15.5333 42 18 42V42M13.1 37.1C11.2 36.4 9.53333 35.3333 8.1 33.9C6.66667 32.4667 5.6 30.8 4.9 28.9C6.8 29.6 8.46667 30.6667 9.9 32.1C11.3333 33.5333 12.4 35.2 13.1 37.1V37.1M22.9 37.1V37.1V37.1V37.1V37.1V37.1M13.1 37.1V37.1V37.1V37.1V37.1V37.1M24.7 20.15C25.3333 20.15 25.875 19.925 26.325 19.475C26.775 19.025 27 18.4833 27 17.85C27 17.3833 26.875 16.975 26.625 16.625C26.375 16.275 26.05 16 25.65 15.8L23.9 14.95C23.8333 15.3167 23.7333 15.675 23.6 16.025C23.4667 16.375 23.3167 16.7 23.15 17C22.9833 17.3 22.7833 17.5833 22.55 17.85C22.3167 18.1167 22.0667 18.3667 21.8 18.6L23.4 19.75C23.5667 19.8833 23.7583 19.9833 23.975 20.05C24.1917 20.1167 24.4333 20.15 24.7 20.15V20.15M23.9 13.05L25.65 12.2C26.05 12 26.3667 11.7167 26.6 11.35C26.8333 10.9833 26.95 10.5833 26.95 10.15C26.95 9.51667 26.7333 8.975 26.3 8.525C25.8667 8.075 25.3333 7.85 24.7 7.85C24.4333 7.85 24.2 7.88333 24 7.95C23.8 8.01667 23.6 8.11667 23.4 8.25L21.75 9.4C22.0167 9.63333 22.275 9.88333 22.525 10.15C22.775 10.4167 22.9833 10.7 23.15 11C23.3167 11.3 23.4667 11.625 23.6 11.975C23.7333 12.325 23.8333 12.6833 23.9 13.05V13.05M15.95 8.4C16.2833 8.26667 16.6167 8.16667 16.95 8.1C17.2833 8.03333 17.6333 8 18 8C18.3667 8 18.7167 8.03333 19.05 8.1C19.3833 8.16667 19.7167 8.26667 20.05 8.4L20.3 6.2C20.3667 5.6 20.1583 5.08333 19.675 4.65C19.1917 4.21667 18.6333 4 18 4C17.3667 4 16.8083 4.21667 16.325 4.65C15.8417 5.08333 15.6333 5.6 15.7 6.2L15.95 8.4V8.4M18 24C18.6333 24 19.1917 23.7833 19.675 23.35C20.1583 22.9167 20.3667 22.4 20.3 21.8L20.05 19.6C19.7167 19.7333 19.3833 19.8333 19.05 19.9C18.7167 19.9667 18.3667 20 18 20C17.6333 20 17.2833 19.9667 16.95 19.9C16.6167 19.8333 16.2833 19.7333 15.95 19.6L15.7 21.8C15.6333 22.4 15.8417 22.9167 16.325 23.35C16.8083 23.7833 17.3667 24 18 24V24M12.1 13.05C12.1667 12.6833 12.2667 12.325 12.4 11.975C12.5333 11.625 12.6833 11.3 12.85 11C13.0167 10.7 13.2167 10.4167 13.45 10.15C13.6833 9.88333 13.9333 9.63333 14.2 9.4L12.6 8.25C12.4333 8.11667 12.2417 8.01667 12.025 7.95C11.8083 7.88333 11.5667 7.85 11.3 7.85C10.6667 7.85 10.125 8.075 9.675 8.525C9.225 8.975 9 9.51667 9 10.15C9 10.5833 9.125 10.9833 9.375 11.35C9.625 11.7167 9.95 12 10.35 12.2L12.1 13.05V13.05M11.3 20.1C11.5667 20.1 11.8 20.075 12 20.025C12.2 19.975 12.4 19.8667 12.6 19.7L14.25 18.6C13.9833 18.3667 13.725 18.1167 13.475 17.85C13.225 17.5833 13.0167 17.3 12.85 17C12.6833 16.7 12.5333 16.375 12.4 16.025C12.2667 15.675 12.1667 15.3167 12.1 14.95L10.35 15.8C9.95 16 9.63333 16.2833 9.4 16.65C9.16667 17.0167 9.05 17.4167 9.05 17.85C9.08333 18.4833 9.30833 19.0167 9.725 19.45C10.1417 19.8833 10.6667 20.1 11.3 20.1V20.1M23.15 17V17V17V17V17V17V17V17V17V17V17V17V17V17M23.15 11V11V11V11V11V11V11V11V11V11V11V11V11V11M18 8V8V8V8V8V8V8V8V8V8V8V8M18 20V20V20V20V20V20V20V20V20V20V20V20M12.85 11V11V11V11V11V11V11V11V11V11V11V11V11V11M12.85 17V17V17V17V17V17V17V17V17V17V17V17V17V17" fill="var(--fill-0, #81524B)"/>
</g>
</svg>
