<svg preserveAspectRatio="none" width="100%" height="100%" overflow="visible" style="display: block;" viewBox="0 0 16 24" fill="none" xmlns="http://www.w3.org/2000/svg">
<g id="Margin">
<path id="Icon" d="M8 14C8.55 14 9.02083 13.8042 9.4125 13.4125C9.80417 13.0208 10 12.55 10 12C10 11.45 9.80417 10.9792 9.4125 10.5875C9.02083 10.1958 8.55 10 8 10C7.45 10 6.97917 10.1958 6.5875 10.5875C6.19583 10.9792 6 11.45 6 12C6 12.55 6.19583 13.0208 6.5875 13.4125C6.97917 13.8042 7.45 14 8 14V14M8 24C5.31667 21.7167 3.3125 19.5958 1.9875 17.6375C0.6625 15.6792 0 13.8667 0 12.2C0 9.7 0.804167 7.70833 2.4125 6.225C4.02083 4.74167 5.88333 4 8 4C10.1167 4 11.9792 4.74167 13.5875 6.225C15.1958 7.70833 16 9.7 16 12.2C16 13.8667 15.3375 15.6792 14.0125 17.6375C12.6875 19.5958 10.6833 21.7167 8 24V24" fill="var(--fill-0, #81524B)"/>
</g>
</svg>
