<svg preserveAspectRatio="none" width="100%" height="100%" overflow="visible" style="display: block;" viewBox="0 0 20 24" fill="none" xmlns="http://www.w3.org/2000/svg">
<g id="Margin">
<path id="Icon" d="M13.3 18.7L14.7 17.3L11 13.6V9H9V14.4L13.3 18.7V18.7M10 24C8.61667 24 7.31667 23.7375 6.1 23.2125C4.88333 22.6875 3.825 21.975 2.925 21.075C2.025 20.175 1.3125 19.1167 0.7875 17.9C0.2625 16.6833 0 15.3833 0 14C0 12.6167 0.2625 11.3167 0.7875 10.1C1.3125 8.88333 2.025 7.825 2.925 6.925C3.825 6.025 4.88333 5.3125 6.1 4.7875C7.31667 4.2625 8.61667 4 10 4C11.3833 4 12.6833 4.2625 13.9 4.7875C15.1167 5.3125 16.175 6.025 17.075 6.925C17.975 7.825 18.6875 8.88333 19.2125 10.1C19.7375 11.3167 20 12.6167 20 14C20 15.3833 19.7375 16.6833 19.2125 17.9C18.6875 19.1167 17.975 20.175 17.075 21.075C16.175 21.975 15.1167 22.6875 13.9 23.2125C12.6833 23.7375 11.3833 24 10 24V24" fill="var(--fill-0, #81524B)"/>
</g>
</svg>
