<svg preserveAspectRatio="none" width="100%" height="100%" overflow="visible" style="display: block;" viewBox="0 0 20 20" fill="none" xmlns="http://www.w3.org/2000/svg">
<g id="Margin">
<path id="Icon" d="M2 20C1.45 20 0.979167 19.8042 0.5875 19.4125C0.195833 19.0208 0 18.55 0 18V6C0 5.45 0.195833 4.97917 0.5875 4.5875C0.979167 4.19583 1.45 4 2 4H18C18.55 4 19.0208 4.19583 19.4125 4.5875C19.8042 4.97917 20 5.45 20 6V18C20 18.55 19.8042 19.0208 19.4125 19.4125C19.0208 19.8042 18.55 20 18 20H2V20M10 13L18 8V6L10 11L2 6V8L10 13V13" fill="var(--fill-0, #81524B)"/>
</g>
</svg>
