<svg preserveAspectRatio="none" width="100%" height="100%" overflow="visible" style="display: block;" viewBox="0 0 18 22" fill="none" xmlns="http://www.w3.org/2000/svg">
<g id="Margin">
<path id="Icon" d="M16.95 22C14.8667 22 12.8083 21.5458 10.775 20.6375C8.74167 19.7292 6.89167 18.4417 5.225 16.775C3.55833 15.1083 2.27083 13.2583 1.3625 11.225C0.454167 9.19167 0 7.13333 0 5.05C0 4.75 0.1 4.5 0.3 4.3C0.5 4.1 0.75 4 1.05 4H5.1C5.33333 4 5.54167 4.07917 5.725 4.2375C5.90833 4.39583 6.01667 4.58333 6.05 4.8L6.7 8.3C6.73333 8.56667 6.725 8.79167 6.675 8.975C6.625 9.15833 6.53333 9.31667 6.4 9.45L3.975 11.9C4.30833 12.5167 4.70417 13.1125 5.1625 13.6875C5.62083 14.2625 6.125 14.8167 6.675 15.35C7.19167 15.8667 7.73333 16.3458 8.3 16.7875C8.86667 17.2292 9.46667 17.6333 10.1 18L12.45 15.65C12.6 15.5 12.7958 15.3875 13.0375 15.3125C13.2792 15.2375 13.5167 15.2167 13.75 15.25L17.2 15.95C17.4333 16.0167 17.625 16.1375 17.775 16.3125C17.925 16.4875 18 16.6833 18 16.9V20.95C18 21.25 17.9 21.5 17.7 21.7C17.5 21.9 17.25 22 16.95 22V22" fill="var(--fill-0, #81524B)"/>
</g>
</svg>
